<svg width="799" height="799" viewBox="0 0 799 799" fill="none" xmlns="http://www.w3.org/2000/svg">
<path d="M798.674 0V132.364L754.951 88.6424V0H754.149L754.286 0.136496V87.9732L710.563 44.2513V0H709.897V44.2513L666.175 87.9732V0H399.174V44.2513L355.451 87.9732V0H354.649L311.063 43.5854V0H310.397V44.2513L266.675 87.9732V0H0V133.5H132.365L88.6431 177.222H0V178.024L0.136497 177.887H87.974L44.2517 221.609H0V222.275H44.2517L87.974 265.997H0V266.663H87.974L44.2517 310.385H0V311.051H43.5858L0 354.639V355.442H87.974L44.2517 399.164H0V798.997H266.668V711.023L310.391 754.745V798.997H311.057V754.745L354.779 711.023V798.86L354.642 798.997H355.445V710.358L399.167 666.636V799H666.168V754.749L666.305 754.612L666.168 754.476V711.027L709.891 754.749V799H710.557V755.415L754.142 799H754.945V711.027L798.667 754.749V799H799V399.167H666.635L710.357 355.445H798.997V354.643L798.86 354.779H711.023L754.745 311.057H798.997V310.392H754.745L711.023 266.67H798.997V266.004H711.023L754.745 222.282H798.997V221.616H755.411L798.997 178.031V177.228H711.023L754.745 133.506H798.997V0H798.664H798.674ZM710.227 44.8605L754.282 88.9154V132.834H666.168V88.9154L710.224 44.8605H710.227ZM754.948 89.5812L798.201 132.834H754.948V89.5812ZM488.419 754.279L444.697 710.557H532.535L576.257 754.279H488.419ZM311.529 665.5L355.252 621.779H443.755L487.477 665.5H311.529ZM221.808 754.279H133.97L177.692 710.557H265.53L221.808 754.279ZM44.7211 488.415L88.4434 444.693V532.53L44.7211 576.252V488.415ZM132.362 399.833L89.1092 443.085V399.833H132.362ZM133.501 310.585V222.082L177.223 178.36V354.976L133.501 398.698V310.861L133.637 310.724L133.501 310.588V310.585ZM265.533 88.446H177.696L133.973 44.724H221.811L265.533 88.446ZM444.031 44.724H531.869L488.146 88.446H400.309L444.031 44.724ZM665.702 444.224L709.425 487.946H621.587L577.865 444.224H665.702ZM620.981 488.279L576.926 532.334H533.007V444.221H576.926L620.981 488.276V488.279ZM665.509 710.361V753.81L577.868 666.17H665.509V710.088L665.373 710.224L665.509 710.361ZM488.423 665.5L444.368 621.446L488.423 577.391H532.342V665.504H488.423V665.5ZM443.758 621.113H355.921L399.643 577.391H487.481L443.758 621.113ZM88.9195 709.892L45.1971 666.17H221.145L177.423 709.892H88.9195ZM132.838 577.86V665.5H45.1971L132.838 577.86ZM399.836 89.5812L443.089 132.834H399.836V89.5812ZM576.923 89.1118L620.645 132.834H444.697L488.419 89.1118H576.923ZM665.506 222.082V310.585L621.784 354.307V177.691L665.506 133.969V221.806L665.369 221.942L665.506 222.079V222.082ZM489.085 576.722L532.338 533.469V576.722H489.085ZM311.529 576.722L355.252 533H399.836H531.869L488.146 576.722H311.529ZM222.28 665.5V622.248L265.533 665.5H222.28ZM266.003 666.166V709.419L222.75 666.166H266.003ZM221.614 665.5H133.501V621.582L177.556 577.527L221.611 621.582V665.5H221.614ZM222.28 222.082L266.003 178.36V266V354.307L222.28 310.585V222.082ZM310.727 133.636L310.864 133.5H443.755L487.477 177.222H310.86L267.138 133.5H310.587L310.724 133.636H310.727ZM577.396 398.694V310.858L621.118 267.136V354.972L577.396 398.694ZM177.226 576.915L133.504 620.637V444.687L177.226 488.409V576.911V576.915ZM176.757 399.83L133.504 443.082V399.83H176.757ZM133.644 443.884L177.23 400.299V487.47L133.644 443.884ZM266.675 399.164V311.523L310.397 355.245V443.748L266.675 487.47V399.164ZM309.928 177.218H266.675V133.966L309.928 177.218ZM266.675 177.884H310.594L354.649 221.939L310.594 265.994H266.675V177.881V177.884ZM576.733 310.581L533.011 354.303V222.079L533.147 221.942L533.011 221.806V178.357L576.733 222.079V310.581ZM576.733 398.694L533.147 355.109L576.733 311.523V398.694ZM532.345 531.861L488.623 488.139V311.523L532.208 355.109L532.345 355.245V399.164V531.858V531.861ZM355.258 222.275H443.762L487.484 265.997H444.038L443.901 265.861L443.765 265.997H399.18H311.539L355.262 222.275H355.258ZM487.957 398.694L444.234 354.972V267.136L487.957 310.858V398.694ZM355.455 310.858L399.177 267.136V310.581L399.041 310.718L399.177 310.854V399.493V443.745L355.455 487.467V310.851V310.858ZM398.708 266.663L355.455 309.915V266.663H398.708ZM399.177 444.69V532.33H311.536L399.177 444.69ZM399.843 266.663H443.096L399.843 309.915V266.663ZM443.565 267.132V354.303L399.979 310.718L443.565 267.132ZM444.704 266.663H488.15L488.286 266.799L488.423 266.663H532.342V354.303L444.701 266.663H444.704ZM489.092 265.997L532.345 222.745V265.997H489.092ZM488.286 265.861L444.701 222.275H531.872L488.286 265.861ZM354.786 266.663V310.581L310.73 354.636L266.675 310.581V266.663H354.789H354.786ZM311.063 355.245L354.786 311.523V399.36L311.063 443.082V355.245ZM354.786 400.299V488.136L311.063 531.858V444.021L354.786 400.299ZM310.397 531.858L266.812 488.272L310.397 444.687V531.858ZM309.928 532.327H266.675V489.075L309.928 532.327ZM399.843 399.493V311.52L443.565 355.242V443.745L399.843 487.467V399.493ZM444.231 355.908L487.953 399.63V487.467L444.231 443.745V355.908ZM532.345 133.493V221.133L444.704 133.493H532.345ZM531.875 221.606H444.038L400.316 177.884H488.153L531.875 221.606ZM399.374 177.884L443.096 221.606H355.258L311.536 177.884H399.374ZM399.843 488.412L443.898 444.357L487.953 488.412V532.33H399.84V488.412H399.843ZM488.623 489.078L531.875 532.33H488.623V489.078ZM533.011 355.911L576.264 399.164H533.011V355.911ZM621.124 266.19L577.402 309.912V222.075L621.124 178.353V266.19ZM577.069 221.469L533.014 177.415V133.496H621.128V177.415L577.073 221.469H577.069ZM266.013 176.749L222.76 133.496H266.013V176.749ZM222.29 133.969L265.876 177.554L222.29 221.14V133.969ZM177.902 576.915V489.078L221.624 532.8V620.637L177.902 576.915ZM221.624 531.861L177.902 488.139V400.302L221.624 444.024V531.861ZM178.372 399.83H266.013V487.47L178.372 399.83ZM310.597 532.996L310.734 533.133L310.87 532.996H354.316L266.675 620.637V532.996H310.594H310.597ZM577.875 399.164L665.516 311.523V399.164H577.875ZM621.794 176.749V133.496H665.047L621.794 176.749ZM443.905 132.694L400.319 89.1085H487.491L443.905 132.694ZM222.763 132.83L266.016 89.5779V132.83H222.763ZM221.961 132.694L178.375 89.1085H265.547L221.961 132.694ZM221.158 133.496L133.517 221.137V133.496H221.158ZM221.628 133.966V221.802L177.906 265.524V177.688L221.628 133.966ZM177.906 266.467L221.628 222.745V310.581L177.906 354.303V266.467ZM221.961 311.187L266.016 355.242V399.16H177.902V355.242L221.957 311.187H221.961ZM177.24 399.16H133.987L177.24 355.908V399.16ZM221.961 666.296L265.547 709.882H178.375L221.961 666.296ZM222.294 621.299V444.687L265.879 488.272L266.016 488.409V532.993V621.299L265.879 621.436L266.016 621.572V665.021L222.294 621.299ZM267.155 621.103L310.877 577.381H398.714L354.992 621.103H267.155ZM354.326 621.768L310.74 665.354L267.155 621.768H354.326ZM533.021 665.49V577.85L620.662 665.49H533.021ZM533.49 577.377H621.328L665.05 621.099H577.212L533.49 577.377ZM533.49 576.712L577.076 533.126L620.662 576.712H533.49ZM533.021 576.242V532.99H576.274L533.021 576.242ZM533.021 443.545V400.292L576.274 443.545H533.021ZM665.506 44.0549H622.253L665.506 0.802329V44.0549ZM665.506 44.7207V132.834H621.587L577.532 88.7789L621.587 44.724H665.506V44.7207ZM576.923 88.4426H489.085L532.808 44.7207H620.645L576.923 88.4426ZM266.668 132.83V89.5779L309.921 132.83H266.668ZM133.031 44.7207L176.754 88.4426H88.9161L45.1938 44.7207H133.031ZM88.9161 89.1085H177.419L221.142 132.83H45.1938L88.9161 89.1085ZM132.835 400.302V443.751L132.698 443.888L132.835 444.024V576.915L89.1126 620.637V444.021L132.835 400.299V400.302ZM88.4467 533.469V621.306L44.7244 665.028V577.191L88.4467 533.469ZM44.0586 665.028L0.469416 621.446L44.0552 577.86V665.031L44.0586 665.028ZM88.3102 710.221L44.255 754.276H0.332919V666.163H44.2517L88.3069 710.218L88.3102 710.221ZM88.9195 710.554H176.757L133.035 754.276H45.1938L88.9161 710.554H88.9195ZM266.672 622.248L309.925 665.5H266.672V622.248ZM399.84 666.636L443.092 709.888H399.84V666.636ZM400.309 666.166H532.342H576.926L620.648 709.888H444.035L400.312 666.166H400.309ZM533.477 710.554H621.314L665.037 754.276H577.199L533.477 710.554ZM665.037 754.942L621.451 798.527L577.865 754.942H665.037ZM710.367 665.497L710.23 665.361L710.094 665.497H621.591L577.868 621.775H754.485L798.208 665.497H710.37H710.367ZM665.979 621.109L622.256 577.387H710.094L753.816 621.109H665.979ZM710.094 576.722H621.591L577.868 533H753.816L710.094 576.722ZM577.868 532.334L621.591 488.612H710.094L753.816 532.334H577.865H577.868ZM711.036 488.612H798.208L754.622 532.197L711.036 488.612ZM710.37 487.946L666.648 444.224H754.485L798.208 487.946H710.37ZM577.202 443.558L533.48 399.836H576.929L577.066 399.973L577.202 399.836H710.094L753.816 443.558H577.202ZM621.318 44.0582H444.701L488.419 0.332917H665.037L621.314 44.0549L621.318 44.0582ZM487.477 0.332917L399.836 87.9732V0.332917H487.477ZM399.17 88.6391L399.034 88.7756L399.17 88.9121V132.83H311.529L399.17 45.1901V88.6391ZM354.782 0.802329V88.6391L311.06 132.361V44.5276L354.782 0.802329ZM310.394 45.1901V132.361L266.808 88.7756L310.394 45.1901ZM266.003 0.332917V87.9732L178.362 0.332917H266.003ZM177.419 0.332917L221.142 44.0549H44.528L0.802336 0.332917H177.416H177.419ZM43.5858 44.0549H0.332919V0.802329L43.5858 44.0549ZM0.332919 44.7207H44.2517L88.3069 88.7756L44.2517 132.83H0.332919V44.7207ZM132.835 133.969V177.222H89.582L132.835 133.969ZM88.9161 177.887H132.835V266H88.9161L88.7796 265.864L44.8609 221.946L88.9161 177.891V177.887ZM132.835 266.666V309.919L89.582 266.666H132.835ZM88.7796 266.803L132.365 310.388H45.1938L88.7796 266.803ZM0.802336 354.779L44.5247 311.057H132.362L88.6398 354.779H0.802336ZM132.835 311.527V399.167H45.1938L132.835 311.527ZM88.4467 399.833V443.751L44.3915 487.806L0.332919 443.751V399.833H88.4467ZM0.332919 444.693L44.0552 488.415V576.918L0.332919 620.64V444.69V444.693ZM43.5858 665.5H0.332919V622.248L43.5858 665.5ZM0.332919 754.945H43.5858L0.332919 798.198V754.945ZM44.528 754.945H221.142L177.419 798.667H0.802336L44.5247 754.945H44.528ZM178.362 798.667L266.003 711.027V798.667H178.362ZM310.727 754.14L266.808 710.221L266.672 710.085V666.166H310.591L310.727 666.303L310.864 666.166H354.782V710.085L310.727 754.14ZM355.448 666.166H398.701L355.448 709.419V666.166ZM399.836 710.554H443.755L487.81 754.609L443.755 798.664H399.836V710.551V710.554ZM444.697 798.667L488.419 754.945H576.923L620.645 798.667H444.694H444.697ZM622.253 798.667L665.506 755.415V798.667H622.253ZM666.172 666.166H709.425L666.172 709.419V666.166ZM666.308 710.221L709.894 666.636V753.807L666.308 710.221ZM754.282 798.194L710.56 754.472V666.636L754.282 710.358V798.194ZM798.67 753.807L711.029 666.166H798.67V753.807ZM798.67 665.031L755.418 621.779H798.67V665.031ZM754.752 621.113L710.696 577.058L754.752 533.003H798.67V621.116H754.752V621.113ZM798.67 532.334H755.418L798.67 489.081V532.334ZM711.029 399.833H798.67V487.473L711.029 399.833ZM666.168 398.694V355.442H709.421L666.168 398.694ZM710.087 354.776H666.168V266.663H710.087L710.224 266.799L754.142 310.718L710.087 354.773V354.776ZM666.168 265.997V222.745L709.421 265.997H666.168ZM710.224 265.861L666.638 222.275H753.81L710.224 265.861ZM798.198 177.887L754.475 221.609H666.638L710.36 177.887H798.198ZM666.165 221.14V133.5H753.806L666.165 221.14Z" fill="url(#paint0_radial_3569_3701)" fill-opacity="0.2"/>
<defs>
<radialGradient id="paint0_radial_3569_3701" cx="0" cy="0" r="1" gradientUnits="userSpaceOnUse" gradientTransform="translate(387.671 399.5) scale(391.233 391.229)">
<stop/>
<stop offset="1" stop-opacity="0"/>
</radialGradient>
</defs>
</svg>
